<?xml version="1.0" encoding="UTF-8" standalone="no"?>
<!DOCTYPE svg PUBLIC "-//W3C//DTD SVG 1.1//EN" "http://www.w3.org/Graphics/SVG/1.1/DTD/svg11.dtd">
<svg width="100%" height="100%" viewBox="0 0 32 32" 
    version="1.1" 
    xmlns="http://www.w3.org/2000/svg" 
    xmlns:xlink="http://www.w3.org/1999/xlink" 
    xml:space="preserve" 
    xmlns:serif="http://www.serif.com/" 
    style="fill:rgba(255, 255, 255, 0.7);fill-rule:evenodd;clip-rule:evenodd;stroke-linejoin:round;stroke-miterlimit:2;">
    <g id="mosaic">
        <path d="M0,23l0,9l9,0l0,-9l-9,0Z"/>
        <path d="M11,0l0,9l10,0l0,-9l-10,0Z"/>
        <path d="M0,11l0,10l9,0l0,-10l-9,0Z"/>
        <path d="M23,11l0,10l9,0l0,-10l-9,0Z"/>
        <path d="M11,11l0,10l10,0l0,-10l-10,0Z"/>
        <path d="M0,0l0,9l9,0l0,-9l-9,0Z"/>
        <path d="M11,23l0,9l10,0l0,-9l-10,0Z"/>
        <path d="M23,23l0,9l9,0l0,-9l-9,0Z"/>
        <path d="M23,0l0,9l9,0l0,-9l-9,0Z"/>
    </g>
</svg>